<?xml version="1.0" encoding="utf-8"?>
<!DOCTYPE svg PUBLIC "-//W3C//DTD SVG 1.1//EN" "http://www.w3.org/Graphics/SVG/1.1/DTD/svg11.dtd">
<svg version="1.1" xmlns="http://www.w3.org/2000/svg" xmlns:xlink="http://www.w3.org/1999/xlink" x="0px" y="0px" viewBox="0 0 256 256" enable-background="new 0 0 256 256" xml:space="preserve">
<metadata> Svg Vector Icons : http://www.onlinewebfonts.com/icon </metadata>
<g><g><g><path fill="#c5a25d" d="M78.3,91c-6.4,0.8-8.8,1.6-19.9,6.5c-7.4,3.3-11.3,4.3-16.5,4.3c-4.7,0-9-1.1-12.6-3.1c-3-1.7-6-2-8.7-0.8c-0.9,0.5-3.6,2.7-6.1,5.1c-5,4.8-5.3,5.6-3.4,10.7c2.6,6.8,15.9,17.6,38.3,31c17.8,10.6,38.4,20.6,42.6,20.6c2,0,4.8-2.7,11.3-11c21.5-26.9,27.3-27.1,47.8-1.6c7.4,9.2,10.1,11.9,12.1,12.4c6.2,1.5,50.2-22.2,68.8-37.1c9.8-7.8,14.1-13.5,14.1-18.9c0-1.6-0.5-2.3-4.5-6.2c-2.4-2.4-5.1-4.7-6-5.1c-2.6-1.4-5.4-1.1-9.3,1c-1.9,1-5,2.1-6.7,2.4c-6.1,1.1-14.4-0.4-22.1-3.9c-11.5-5.3-16.6-6.6-25.6-6.5c-9.3,0.1-18.8,1.9-34,6.9c-4.3,1.4-8.8,2.5-9.9,2.5c-1.1,0-5.6-1.1-9.9-2.5C100.6,92,87.5,89.8,78.3,91z M96.5,116.7c10.6,3.3,16.2,8.6,13.8,13.4c-1.7,3.7-9.3,7.3-18,8.7c-9.1,1.4-24.2-2.4-36.9-9.2c-4.5-2.4-5.9-3.7-4.2-3.7c0.5,0,5.3-1.7,10.7-3.8c8.4-3.2,15.5-5.4,21.8-6.7C86.4,114.9,92.9,115.5,96.5,116.7z M179.2,116.9c2.9,0.8,7.7,2.3,10.8,3.4c3,1.1,7.7,2.9,10.5,4c2.8,1,5.1,2.1,5.1,2.3c0.2,0.6-8.6,5.2-14.3,7.4c-10.4,4.1-20.2,5.8-27.2,4.8c-8.4-1.2-16.2-5-17.9-8.7c-1.7-3.6,0.9-7.6,7.3-10.8C162.3,114.9,168.9,114.3,179.2,116.9z"/></g></g></g>
</svg>